<svg width="97" height="54" viewBox="0 0 97 54" fill="none" xmlns="http://www.w3.org/2000/svg">
<g clip-path="url(#clip0_95_59)">
<path fill-rule="evenodd" clip-rule="evenodd" d="M10.6476 8.5008C10.6476 1.28332 0 1.28332 0 8.5008C0 15.7183 10.6476 15.7323 10.6476 8.5008ZM2.72944 8.5008C2.72944 4.74218 7.93448 4.74218 7.93448 8.5008C7.93448 12.2594 2.72944 12.2875 2.72944 8.5008ZM17.2034 9.27594C18.6566 9.27594 18.6706 11.318 17.2034 11.318H15.3054V9.27594H17.2034ZM15.3054 6.92007V5.65315H20.1098V3.26684H12.6505V13.7043H17.2174C22.1849 13.6903 22.1849 6.92007 17.2174 6.92007H15.3054ZM26.8729 7.59218L24.2343 13.7067H21.6399V13.3179L26.307 3.13101H27.4481L32.1338 13.3156V13.7043H29.5395L26.8706 7.58983L26.8729 7.59218ZM40.7227 13.7067H43.3171V13.3179L38.6314 3.13335H37.4902L32.8185 13.3179V13.7067H35.4129L36.0207 12.3952H40.1149L40.7227 13.7067ZM39.2555 10.112H36.8824L38.0538 7.36736L39.2555 10.112ZM44.06 8.48675C44.074 12.0346 46.7452 13.8261 49.3838 13.8097C51.5939 13.8097 53.9228 12.6458 54.3071 9.69279H51.6964C51.4146 10.8122 50.511 11.3789 49.3838 11.3789C47.8118 11.3648 46.8034 10.023 46.8034 8.48675C46.8034 6.75615 47.8258 5.57821 49.3838 5.57821C50.497 5.57821 51.2818 6.05594 51.6521 7.11445H54.2628C53.8622 4.32534 51.5334 3.1474 49.3838 3.1474C46.7452 3.1474 44.074 4.93655 44.06 8.48675ZM57.8656 5.65315V13.7043H60.4902V5.65081H63.0264V3.26684H55.3155V5.65315H57.8656ZM73.3177 3.26684H70.6045V7.05356H67.4023V3.26684H64.6892V13.7043H67.4023V9.51481H70.6045V13.7043H73.3177V3.26684ZM85.9821 8.5008C85.9821 1.28332 75.3345 1.28332 75.3345 8.5008C75.3345 15.7183 85.9821 15.7323 85.9821 8.5008ZM78.0639 8.5008C78.0639 4.74218 83.2689 4.74218 83.2689 8.5008C83.2689 12.2594 78.0639 12.2875 78.0639 8.5008ZM89.0236 13.7043H88.0734V3.26684H90.7866V8.37434L96.0358 3.22234H97V13.7043H94.2566V8.57574L89.0213 13.7043H89.0236ZM91.8695 0C91.3502 0.0304436 90.8471 0.0889891 90.3417 0.149876C90.386 1.81959 91.3199 2.70012 92.9221 2.70012C94.5244 2.70012 95.4583 1.81959 95.5165 0.149876C95.0135 0.0913309 94.5081 0.0304436 93.9888 0C93.9003 0.625266 93.4997 0.819637 92.8919 0.819637C92.284 0.819637 91.9137 0.550327 91.8695 0Z" fill="#00FFB2"/>
<path fill-rule="evenodd" clip-rule="evenodd" d="M3.92648 21.992L0.761542 18.4629H0V26.6147H2.11229V22.992L3.82168 24.8045H4.05224L5.77328 22.992V26.6147H7.88557V18.4629H7.14732L3.92648 21.992ZM18.3725 22.5611C18.3725 16.9407 10.0817 16.9407 10.0817 22.5611C10.0817 28.1814 18.3725 28.1931 18.3725 22.5611ZM12.2056 22.5611C12.2056 19.6338 16.2579 19.6338 16.2579 22.5611C16.2579 25.4883 12.2056 25.5094 12.2056 22.5611ZM23.6264 21.8538L25.7061 26.6147H27.7276V26.3127L24.0782 18.3809H23.1886L19.5509 26.3127V26.6147H21.5724L23.6288 21.8538H23.6264ZM37.2178 22.5611C37.2178 16.9407 28.927 16.9407 28.927 22.5611C28.927 28.1814 37.2178 28.1931 37.2178 22.5611ZM31.0509 22.5611C31.0509 19.6338 35.1031 19.6338 35.1031 22.5611C35.1031 25.4883 31.0509 25.5094 31.0509 22.5611ZM40.1149 26.6358H44.8961V27.5304H46.5938V24.8139H45.7508L42.8862 18.3809H41.9966L39.2253 24.8139H38.4055V27.5304H40.1149V26.6358ZM42.4368 21.8515L43.6035 24.7881H41.3166L42.4368 21.8515ZM53.3149 18.484H48.2683V26.6124H53.4198V24.7671H50.3247V23.3385H53.0727V21.4932H50.3247V20.3434H53.3149V18.4863V18.484ZM59.4003 26.6124H61.5009V23.5118C61.629 23.5118 61.7781 23.4884 61.9271 23.465L63.6947 26.6124H65.9817V26.2869L63.8112 22.7109C65.4158 21.6782 65.3576 20.1443 65.3576 18.484H63.2453C63.2453 19.9476 63.3501 21.444 61.5009 21.5494V18.484H59.4003V21.5494C57.5535 21.444 57.656 19.9476 57.656 18.484H55.5437C55.5437 20.1443 55.4855 21.6782 57.0901 22.7109L54.9195 26.2869V26.6124H57.2065L58.9741 23.465C59.1232 23.4884 59.2745 23.5118 59.4003 23.5118V26.6124ZM74.5403 18.484H72.428V21.4323H69.9338V18.484H67.8215V26.6124H69.9338V23.3502H72.428V26.6124H74.5403V18.484ZM77.2418 18.484V26.6124H80.798C84.6663 26.6007 84.6663 20.9101 80.798 20.9101H79.3075V18.484H77.2395H77.2418ZM80.7864 22.7812C81.9182 22.7812 81.9881 24.7436 80.7864 24.7553C80.302 24.7671 79.7826 24.7553 79.3075 24.7553V22.7812H80.7864ZM85.2205 26.6124H87.2886V18.484H85.2205V26.6124ZM90.7866 26.6124H90.0483V18.484H92.1606V22.4604L96.2478 18.4488H96.9977V26.6124H94.8621V22.6173L90.7866 26.6124ZM93.0037 15.9407C92.5984 15.9642 92.2072 16.011 91.8136 16.0578C91.8485 17.3575 92.5751 18.0437 93.8234 18.0437C95.0717 18.0437 95.7983 17.3575 95.8449 16.0578C95.4513 16.011 95.06 15.9642 94.6548 15.9407C94.585 16.4278 94.2729 16.5801 93.8001 16.5801C93.3274 16.5801 93.0386 16.3716 93.0037 15.9407Z" fill="#00FFB2"/>
<path fill-rule="evenodd" clip-rule="evenodd" d="M0 51.7682H13.8522V54H17.9836V47.389H15.9877V31.9916H10.8456V47.108H5.14216V31.9916H0V51.7706V51.7682ZM34.8703 31.9892H22.5924V51.7682H35.1241V47.2766H27.5948V43.8014H34.281V39.3097H27.5948V36.5136H34.8726V31.9939L34.8703 31.9892ZM57.0411 31.9892H51.899V39.1669H45.8299V31.9892H40.6878V51.7682H45.8299V43.8295H51.899V51.7682H57.0411V31.9892ZM66.7083 36.5089V51.7659H71.6805V36.5089H76.4849V31.9892H61.8736V36.5089H66.706H66.7083ZM86.3175 51.7659V46.7076H89.9412C99.3545 46.7076 99.3545 32.015 89.9412 31.9869H81.2871V51.7659H86.3175ZM89.9132 42.1597H86.3175V36.5089C87.4702 36.5089 88.7348 36.4808 89.9132 36.5089C92.836 36.537 92.666 42.1597 89.9132 42.1597Z" fill="#00FFB2"/>
</g>
<defs>
<clipPath id="clip0_95_59">
<rect width="97" height="54" fill="white"/>
</clipPath>
</defs>
</svg>
