<?xml version="1.0" encoding="UTF-8"?>
<svg id="Layer_2" data-name="Layer 2" xmlns="http://www.w3.org/2000/svg" viewBox="0 0 416.51 230.59">
  <defs>
    <style>
      .cls-1 {
        fill: #020204;
        fill-rule: evenodd;
      }
    </style>
  </defs>
  <g id="_1" data-name="1">
    <g>
      <path class="cls-1" d="M45.72,36.3C45.72,5.48,0,5.48,0,36.3s45.72,30.88,45.72,0h0Zm-34,0c0-16.05,22.35-16.05,22.35,0s-22.35,16.17-22.35,0h0Zm62.15,3.31c6.24,0,6.3,8.72,0,8.72h-8.15v-8.72h8.15Zm-8.15-10.06v-5.41h20.63V13.95H54.32V58.52h19.61c21.33-.06,21.33-28.97,0-28.97h-8.21Zm49.67,2.87l-11.33,26.11h-11.14v-1.66L112.96,13.37h4.9l20.12,43.49v1.66h-11.14l-11.46-26.11h0Zm59.47,26.11h11.14v-1.66l-20.12-43.49h-4.9l-20.06,43.49v1.66h11.14l2.61-5.6h17.58l2.61,5.6h0Zm-6.3-15.35h-10.19l5.03-11.72,5.16,11.72h0Zm20.63-6.94c.06,15.15,11.53,22.8,22.86,22.73,9.49,0,19.49-4.97,21.14-17.58h-11.21c-1.21,4.78-5.09,7.2-9.93,7.2-6.75-.06-11.08-5.79-11.08-12.35,0-7.39,4.39-12.42,11.08-12.42,4.78,0,8.15,2.04,9.74,6.56h11.21c-1.72-11.91-11.72-16.94-20.95-16.94-11.33,0-22.8,7.64-22.86,22.8h0Zm59.28-12.1V58.52h11.27V24.13h10.89V13.95h-33.11v10.19h10.95Zm66.35-10.19h-11.65V30.12h-13.75V13.95h-11.65V58.52h11.65v-17.89h13.75v17.89h11.65V13.95h0Zm54.38,22.35c0-30.82-45.72-30.82-45.72,0s45.72,30.88,45.72,0h0Zm-34,0c0-16.05,22.35-16.05,22.35,0s-22.35,16.17-22.35,0h0Zm47.06,22.22h-4.08V13.95h11.65v21.81l22.54-22h4.14V58.52h-11.78v-21.9l-22.48,21.9h0ZM394.48,0c-2.23,.13-4.39,.38-6.56,.64,.19,7.13,4.2,10.89,11.08,10.89s10.89-3.76,11.14-10.89c-2.16-.25-4.33-.51-6.56-.64-.38,2.67-2.1,3.5-4.71,3.5s-4.2-1.15-4.39-3.5h0Z"/>
      <path class="cls-1" d="M16.86,93.91l-13.59-15.07H0v34.81H9.07v-15.47l7.34,7.74h.99l7.39-7.74v15.47h9.07v-34.81h-3.17l-13.83,15.07h0Zm62.03,2.43c0-24-35.6-24-35.6,0s35.6,24.05,35.6,0h0Zm-26.48,0c0-12.5,17.4-12.5,17.4,0s-17.4,12.59-17.4,0h0Zm49.04-3.02l8.93,20.33h8.68v-1.29l-15.67-33.87h-3.82l-15.62,33.87v1.29h8.68l8.83-20.33h0Zm58.36,3.02c0-24-35.6-24-35.6,0s35.6,24.05,35.6,0h0Zm-26.48,0c0-12.5,17.4-12.5,17.4,0s-17.4,12.59-17.4,0h0Zm38.92,17.4h20.53v3.82h7.29v-11.6h-3.62l-12.3-27.47h-3.82l-11.9,27.47h-3.52v11.6h7.34v-3.82h0Zm9.97-20.43l5.01,12.54h-9.82l4.81-12.54h0Zm46.71-14.38h-21.67v34.71h22.12v-7.88h-13.29v-6.1h11.8v-7.88h-11.8v-4.91h12.84v-7.93h0Zm26.13,34.71h9.02v-13.24c.55,0,1.19-.1,1.83-.2l7.59,13.44h9.82v-1.39l-9.32-15.27c6.89-4.41,6.64-10.96,6.64-18.05h-9.07c0,6.25,.45,12.64-7.49,13.09v-13.09h-9.02v13.09c-7.93-.45-7.49-6.84-7.49-13.09h-9.07c0,7.09-.25,13.64,6.64,18.05l-9.32,15.27v1.39h9.82l7.59-13.44c.64,.1,1.29,.2,1.83,.2v13.24h0Zm65.01-34.71h-9.07v12.59h-10.71v-12.59h-9.07v34.71h9.07v-13.93h10.71v13.93h9.07v-34.71h0Zm11.6,0v34.71h15.27c16.61-.05,16.61-24.35,0-24.35h-6.4v-10.36h-8.88Zm15.22,18.35c4.86,0,5.16,8.38,0,8.43-2.08,.05-4.31,0-6.35,0v-8.43h6.35Zm19.04,16.36h8.88v-34.71h-8.88v34.71h0Zm23.9,0h-3.17v-34.71h9.07v16.98l17.55-17.13h3.22v34.86h-9.17v-17.06l-17.5,17.06h0Zm9.52-45.57c-1.74,.1-3.42,.3-5.11,.5,.15,5.55,3.27,8.48,8.63,8.48s8.48-2.93,8.68-8.48c-1.69-.2-3.37-.4-5.11-.5-.3,2.08-1.64,2.73-3.67,2.73s-3.27-.89-3.42-2.73h0Z"/>
      <path class="cls-1" d="M0,221.06H59.48v9.53h17.74v-28.23h-8.57v-65.75h-22.08v64.55H22.08v-64.55H0v84.46H0Zm149.73-84.46h-52.72v84.46h53.81v-19.18h-32.33v-14.84h28.71v-19.18h-28.71v-11.94h31.25v-19.3h0Zm95.2,0h-22.08v30.65h-26.06v-30.65h-22.08v84.46h22.08v-33.9h26.06v33.9h22.08v-84.46h0Zm41.51,19.3v65.15h21.35v-65.15h20.63v-19.3h-62.74v19.3h20.75Zm84.2,65.15v-21.6h15.56c40.42,0,40.42-62.74,0-62.86h-37.16v84.46h21.6Zm15.44-41.02h-15.44v-24.13c4.95,0,10.38-.12,15.44,0,12.55,.12,11.82,24.13,0,24.13Z"/>
    </g>
  </g>
</svg>