<svg width="20" height="20" viewBox="0 0 20 20" fill="#fff" xmlns="http://www.w3.org/2000/svg">
<path d="M16.8254 5.39683L2.7381 19.5238C2.42063 19.8413 2.04339 20 1.60635 20C1.17037 20 0.79365 19.8413 0.47619 19.5238C0.15873 19.2063 0 18.8291 0 18.3921C0 17.9561 0.15873 17.5794 0.47619 17.2619L14.6032 3.1746L2.53968 3.1746C2.08995 3.1746 1.7127 3.02275 1.40794 2.71905C1.10423 2.41429 0.952381 2.03704 0.952381 1.5873C0.952381 1.13757 1.10423 0.760318 1.40794 0.455556C1.7127 0.151852 2.08995 0 2.53968 0L18.4127 0C18.8624 0 19.2392 0.151852 19.5429 0.455556C19.8476 0.760318 20 1.13757 20 1.5873V17.4603C20 17.9101 19.8476 18.2868 19.5429 18.5905C19.2392 18.8952 18.8624 19.0476 18.4127 19.0476C17.963 19.0476 17.5862 18.8952 17.2825 18.5905C16.9778 18.2868 16.8254 17.9101 16.8254 17.4603V5.39683Z" fill="white"/>
</svg>
