<svg width="22" height="21" viewBox="0 0 22 21" fill="none" xmlns="http://www.w3.org/2000/svg">
<path d="M18.1667 5.66667L3.375 20.5C3.04167 20.8333 2.64556 21 2.18667 21C1.72889 21 1.33333 20.8333 1 20.5C0.666666 20.1667 0.5 19.7706 0.5 19.3117C0.5 18.8539 0.666666 18.4583 1 18.125L15.8333 3.33333H3.16667C2.69444 3.33333 2.29833 3.17389 1.97833 2.855C1.65944 2.535 1.5 2.13889 1.5 1.66667C1.5 1.19444 1.65944 0.798334 1.97833 0.478334C2.29833 0.159445 2.69444 0 3.16667 0H19.8333C20.3056 0 20.7011 0.159445 21.02 0.478334C21.34 0.798334 21.5 1.19444 21.5 1.66667V18.3333C21.5 18.8056 21.34 19.2011 21.02 19.52C20.7011 19.84 20.3056 20 19.8333 20C19.3611 20 18.9656 19.84 18.6467 19.52C18.3267 19.2011 18.1667 18.8056 18.1667 18.3333V5.66667Z" fill="black"/>
</svg>
