<svg width="20" height="20" viewBox="0 0 20 20" fill="none" xmlns="http://www.w3.org/2000/svg">
<path d="M14.6032 16.8254L0.47619 2.7381C0.158731 2.42063 -2.38419e-06 2.04339 -2.38419e-06 1.60635C-2.38419e-06 1.17037 0.158731 0.79365 0.47619 0.47619C0.793651 0.15873 1.1709 0 1.60793 0C2.04391 0 2.42063 0.15873 2.73809 0.47619L16.8254 14.6032L16.8254 2.53968C16.8254 2.08995 16.9772 1.7127 17.281 1.40794C17.5857 1.10423 17.963 0.952381 18.4127 0.952381C18.8624 0.952381 19.2397 1.10423 19.5444 1.40794C19.8481 1.7127 20 2.08995 20 2.53968L20 18.4127C20 18.8624 19.8481 19.2392 19.5444 19.5429C19.2397 19.8476 18.8624 20 18.4127 20L2.53968 20C2.08995 20 1.71323 19.8476 1.40952 19.5429C1.10476 19.2392 0.952379 18.8624 0.952379 18.4127C0.952379 17.963 1.10476 17.5862 1.40952 17.2825C1.71323 16.9778 2.08995 16.8254 2.53968 16.8254L14.6032 16.8254Z" fill="#00FFB2"/>
</svg>
