<svg width="30" height="31" viewBox="0 0 30 31" fill="none" xmlns="http://www.w3.org/2000/svg">
<path d="M13.0316 24.8058L13.0002 2.53696C13.0002 2.03583 13.1727 1.6128 13.5177 1.26785C13.8618 0.923747 14.2844 0.751694 14.7855 0.751694C15.2866 0.751693 15.7097 0.924165 16.0546 1.26911C16.3987 1.61322 16.5708 2.03583 16.5708 2.53696L16.5395 24.8058L26.0609 15.2844C26.4159 14.9294 26.8335 14.7515 27.3137 14.7507C27.794 14.7515 28.2116 14.9294 28.5665 15.2844C28.9215 15.6394 29.0994 16.057 29.1002 16.5372C29.0994 17.0175 28.9215 17.4351 28.5665 17.7901L16.0383 30.3183C15.6834 30.6732 15.2662 30.8507 14.7868 30.8507C14.3057 30.8507 13.8877 30.6732 13.5327 30.3183L1.00448 17.7901C0.649517 17.4351 0.472453 17.0175 0.473288 16.5372C0.472453 16.057 0.649517 15.6394 1.00448 15.2844C1.35945 14.9294 1.77706 14.7524 2.2573 14.7532C2.73755 14.7524 3.15516 14.9294 3.51012 15.2844L13.0316 24.8058Z" fill="#00FFB2"/>
</svg>
