<svg width="10" height="10" viewBox="0 0 10 10" fill="none" xmlns="http://www.w3.org/2000/svg">
<path fill-rule="evenodd" clip-rule="evenodd" d="M9.05862 7.95306V6.04539C9.05862 5.78566 9.26915 5.57511 9.52885 5.57511C9.78856 5.57511 9.99909 5.78566 9.99909 6.04539V7.95306C9.99909 9.08355 9.08272 10 7.95231 10L2.04679 10C0.916377 10 -4.94117e-08 9.08355 0 7.95306L2.58138e-07 2.04709C3.0755e-07 0.916597 0.91638 0.000150268 2.04679 0.000153494L3.95432 0.000158904C4.21403 0.000159631 4.42456 0.210709 4.42456 0.470434C4.42456 0.73016 4.21403 0.940708 3.95432 0.940707L2.04679 0.940702C1.43579 0.9407 0.940477 1.43605 0.940477 2.04709L0.940476 7.95306C0.940476 8.5641 1.43579 9.05945 2.04678 9.05945H7.95231C8.5633 9.05945 9.05862 8.5641 9.05862 7.95306Z" fill="#00FFB2"/>
<path fill-rule="evenodd" clip-rule="evenodd" d="M9.86209 0.137868C10.0457 0.321521 10.0457 0.619282 9.86209 0.802936L4.63596 6.02945C4.45233 6.21311 4.15459 6.21311 3.97095 6.02946C3.78731 5.8458 3.78731 5.54804 3.97095 5.36439L9.19707 0.137868C9.38071 -0.0457857 9.67845 -0.0457857 9.86209 0.137868Z" fill="#00FFB2"/>
<path fill-rule="evenodd" clip-rule="evenodd" d="M9.53035 0.00510465C9.78972 0.00557966 9.99973 0.215989 9.99973 0.475378L9.99973 3.25772C9.99973 3.51745 9.7892 3.72799 9.52949 3.72799C9.26978 3.72799 9.05925 3.51745 9.05925 3.25772L9.05925 0.944792L6.74135 0.940547C6.48165 0.940072 6.2715 0.729138 6.27197 0.469413C6.27245 0.209688 6.48337 -0.000474727 6.74307 8.05395e-07L9.53035 0.00510465Z" fill="#00FFB2"/>
</svg>
