<svg width="10" height="11" viewBox="0 0 10 11" fill="none" xmlns="http://www.w3.org/2000/svg">
<path fill-rule="evenodd" clip-rule="evenodd" d="M9.05862 8.45306V6.54539C9.05862 6.28566 9.26915 6.07511 9.52885 6.07511C9.78856 6.07511 9.99909 6.28566 9.99909 6.54539V8.45306C9.99909 9.58355 9.08272 10.5 7.95231 10.5L2.04679 10.5C0.916377 10.5 -4.94117e-08 9.58355 0 8.45306L2.58138e-07 2.54709C3.0755e-07 1.4166 0.91638 0.50015 2.04679 0.500153L3.95432 0.500159C4.21403 0.50016 4.42456 0.710709 4.42456 0.970434C4.42456 1.23016 4.21403 1.44071 3.95432 1.44071L2.04679 1.4407C1.43579 1.4407 0.940477 1.93605 0.940477 2.54709L0.940476 8.45306C0.940476 9.0641 1.43579 9.55945 2.04678 9.55945H7.95231C8.5633 9.55945 9.05862 9.0641 9.05862 8.45306Z" fill="#050505"/>
<path fill-rule="evenodd" clip-rule="evenodd" d="M9.86209 0.637868C10.0457 0.821521 10.0457 1.11928 9.86209 1.30294L4.63596 6.52945C4.45233 6.71311 4.15459 6.71311 3.97095 6.52946C3.78731 6.3458 3.78731 6.04804 3.97095 5.86439L9.19707 0.637868C9.38071 0.454214 9.67845 0.454214 9.86209 0.637868Z" fill="#050505"/>
<path fill-rule="evenodd" clip-rule="evenodd" d="M9.53035 0.505105C9.78972 0.50558 9.99973 0.715989 9.99973 0.975378L9.99973 3.75772C9.99973 4.01745 9.7892 4.22799 9.52949 4.22799C9.26978 4.22799 9.05925 4.01745 9.05925 3.75772L9.05925 1.44479L6.74135 1.44055C6.48165 1.44007 6.2715 1.22914 6.27197 0.969413C6.27245 0.709688 6.48337 0.499525 6.74307 0.500001L9.53035 0.505105Z" fill="#050505"/>
</svg>
