<svg width="19" height="19" viewBox="0 0 19 19" fill="none" xmlns="http://www.w3.org/2000/svg">
<path d="M0 9.49911C0 12.0792 0.0112811 12.403 0.0573957 13.4163C0.103708 14.4277 0.263823 15.118 0.49875 15.7221C0.741396 16.3469 1.06598 16.8769 1.59422 17.405C2.12226 17.9334 2.65228 18.258 3.27691 18.5014C3.88115 18.737 4.57168 18.8973 5.58264 18.9428C6.59597 18.9881 6.91996 19 9.5 19C12.08 19 12.4028 18.9885 13.4162 18.9426C14.4275 18.8961 15.1179 18.736 15.7219 18.5012C16.3467 18.2584 16.8768 17.9338 17.4048 17.4056C17.9332 16.8777 18.2586 16.3477 18.5012 15.7233C18.7362 15.1188 18.8963 14.4283 18.9426 13.4171C18.9887 12.4038 19 12.0802 19 9.5003C19 6.92003 18.9887 6.59722 18.9426 5.58388C18.8963 4.57252 18.7362 3.88138 18.5012 3.27694C18.2586 2.65231 17.9332 2.12307 17.4048 1.59522C16.8768 1.06678 16.3467 0.742195 15.7221 0.498755C15.1179 0.265211 14.4273 0.104896 13.4164 0.0573957C12.403 0.0118744 12.08 -5.71892e-07 9.5 -5.71892e-07C6.91996 -5.71892e-07 6.59617 0.0118744 5.58283 0.0573957C4.57148 0.104896 3.88115 0.265211 3.2771 0.498755C2.65228 0.742195 2.12226 1.06678 1.59422 1.59522C1.06578 2.12367 0.741198 2.65211 0.49875 3.27753C0.263823 3.88316 0.103708 4.5739 0.0573957 5.58527C0.0112811 6.59861 0 6.92122 0 9.50208L0 9.49911ZM1.71198 10.3513C1.71158 10.0984 1.71198 9.81618 1.71198 9.49911C1.71198 6.96258 1.72108 6.66194 1.7666 5.66028C1.80896 4.73402 1.96373 4.2313 2.09376 3.89642C2.26595 3.45309 2.47178 3.13701 2.80428 2.80471C3.13678 2.4722 3.45345 2.26637 3.89678 2.09378C4.23126 1.96375 4.73397 1.80878 5.66022 1.76662C6.66168 1.7211 6.96251 1.71121 9.49782 1.71121C12.0331 1.71121 12.334 1.7211 13.3354 1.76662C14.2617 1.80898 14.7644 1.96375 15.0989 2.09378C15.5422 2.26597 15.8579 2.4722 16.1902 2.80471C16.5227 3.13721 16.7285 3.45289 16.9007 3.89642C17.0313 4.23091 17.1857 4.73402 17.2281 5.66028C17.2736 6.66175 17.2835 6.96258 17.2835 9.49911C17.2835 12.0358 17.2736 12.3365 17.2281 13.3379C17.1853 14.2642 17.0305 14.7669 16.9005 15.102C16.7283 15.5453 16.5225 15.862 16.19 16.1945C15.8575 16.527 15.5416 16.7328 15.0981 16.9054C14.7636 17.0355 14.2609 17.1904 13.3346 17.2326C12.3332 17.2781 12.0323 17.2872 9.49545 17.2872C6.95855 17.2872 6.6593 17.2781 5.65784 17.2326C4.73159 17.1902 4.22889 17.0355 3.89401 16.9054C3.45068 16.7332 3.13401 16.527 2.80151 16.1945C2.46901 15.862 2.26318 15.5453 2.09059 15.102C1.95997 14.7671 1.80559 14.2642 1.76304 13.3379C1.72346 12.4616 1.71158 12.1219 1.7096 10.3513H1.71198ZM3.28937 4.42804C3.28937 5.05742 3.79941 5.56805 4.42898 5.56805C5.05835 5.56805 5.56898 5.05742 5.56898 4.42804C5.56898 3.79865 5.05835 3.28802 4.42898 3.28802C3.7996 3.28802 3.28898 3.79865 3.28898 4.42804H3.28937ZM4.62135 9.49911C4.62135 12.1934 6.80576 14.3778 9.5 14.3778C12.1942 14.3778 14.3777 12.1934 14.3777 9.49911C14.3777 6.80484 12.1942 4.6212 9.5 4.6212C6.80576 4.6212 4.62135 6.80504 4.62135 9.49931V9.49911ZM6.33333 9.49911C6.33333 7.7503 7.75101 6.33241 9.5 6.33241C11.2488 6.33241 12.6667 7.7503 12.6667 9.49911C12.6667 11.2481 11.2488 12.6658 9.5 12.6658C7.75101 12.6658 6.33333 11.2481 6.33333 9.49911Z" fill="white"/>
</svg>
