<svg width="14" height="18" viewBox="0 0 14 18" fill="none" xmlns="http://www.w3.org/2000/svg">
<path fill-rule="evenodd" clip-rule="evenodd" d="M7 5.44191C6.09035 5.44191 5.35294 6.19158 5.35294 7.11634C5.35294 8.04111 6.09035 8.79078 7 8.79078C7.90965 8.79078 8.64706 8.04111 8.64706 7.11634C8.64706 6.19158 7.90965 5.44191 7 5.44191ZM3.70588 7.11634C3.70588 5.26681 5.18071 3.76748 7 3.76748C8.81929 3.76748 10.2941 5.26681 10.2941 7.11634C10.2941 8.96587 8.81929 10.4652 7 10.4652C5.18071 10.4652 3.70588 8.96587 3.70588 7.11634Z" fill="#00FFB2"/>
<path fill-rule="evenodd" clip-rule="evenodd" d="M7 1.67443C4.0192 1.67443 1.64706 4.04883 1.64706 6.92314C1.64706 9.26635 3.03224 11.633 4.54641 13.4945C5.28973 14.4083 6.03517 15.1652 6.5952 15.6937C6.74502 15.8351 6.88117 15.9598 7 16.0664C7.11883 15.9598 7.25498 15.8351 7.4048 15.6937C7.96483 15.1652 8.71027 14.4083 9.45359 13.4945C10.9678 11.633 12.3529 9.26635 12.3529 6.92314C12.3529 4.04883 9.9808 1.67443 7 1.67443ZM7 17.1629C6.49038 17.8206 6.49019 17.8204 6.48998 17.8203L6.48793 17.8186L6.48324 17.8149L6.46729 17.8019C6.45377 17.7909 6.43456 17.7751 6.41002 17.7548C6.36097 17.7141 6.2906 17.655 6.20198 17.5786C6.02479 17.4258 5.77421 17.2036 5.47465 16.9209C4.8766 16.3565 4.07791 15.546 3.27712 14.5615C1.70305 12.6264 0 9.87313 0 6.92314C0 3.07512 3.15846 0 7 0C10.8415 0 14 3.07512 14 6.92314C14 9.87313 12.297 12.6264 10.7229 14.5615C9.92209 15.546 9.1234 16.3565 8.52535 16.9209C8.2258 17.2036 7.97521 17.4258 7.79802 17.5786C7.7094 17.655 7.63903 17.7141 7.58998 17.7548C7.56544 17.7751 7.54623 17.7909 7.53271 17.8019L7.51676 17.8149L7.51207 17.8186L7.51056 17.8198C7.51035 17.82 7.50962 17.8206 7 17.1629ZM7 17.1629L7.50962 17.8206C7.21068 18.06 6.78892 18.0597 6.48998 17.8203L7 17.1629Z" fill="#00FFB2"/>
</svg>
