<svg width="20" height="17" viewBox="0 0 20 17" fill="none" xmlns="http://www.w3.org/2000/svg">
<path d="M18.0048 0.144419C18.0048 0.144419 19.8256 -0.563674 19.6739 1.15598C19.6233 1.86407 19.1681 4.34239 18.8141 7.02303L17.6002 14.9638C17.6002 14.9638 17.499 16.1271 16.5886 16.3294C15.6782 16.5317 14.3126 15.6213 14.0597 15.419C13.8574 15.2672 10.2664 12.9912 9.00193 11.8785C8.64788 11.5751 8.24326 10.9681 9.0525 10.26L14.3632 5.20222C14.9701 4.59528 15.5771 3.1791 13.0482 4.89875L5.96724 9.70367C5.96724 9.70367 5.158 10.2094 3.64065 9.75425L0.353082 8.74268C0.353082 8.74268 -0.860791 7.98401 1.21291 7.22534C6.27071 4.84817 12.4918 2.42043 18.0048 0.144419Z" fill="white"/>
</svg>
