<svg width="25" height="16" viewBox="0 0 25 16" fill="none" xmlns="http://www.w3.org/2000/svg">
<path fill-rule="evenodd" clip-rule="evenodd" d="M23.8728 1.9C24.0391 1.34547 23.8728 0.9375 23.0798 0.9375H20.4592C19.792 0.9375 19.4858 1.28969 19.3195 1.67797C19.3195 1.67797 17.9863 4.92531 16.0984 7.03406C15.4881 7.64438 15.2103 7.83906 14.8778 7.83906C14.7105 7.83906 14.4698 7.64438 14.4698 7.08984V1.9C14.4698 1.23391 14.2762 0.9375 13.7206 0.9375H9.60266C9.18703 0.9375 8.93547 1.24703 8.93547 1.53906C8.93547 2.17125 9.88047 2.31562 9.97781 4.09187V7.94953C9.97781 8.795 9.82469 8.94812 9.49109 8.94812C8.60297 8.94812 6.44172 5.68766 5.15984 1.95578C4.90937 1.23062 4.65781 0.9375 3.98844 0.9375H1.36672C0.618594 0.9375 0.46875 1.28969 0.46875 1.67797C0.46875 2.3725 1.35687 5.81234 4.60531 10.3634C6.77094 13.4719 9.8225 15.1562 12.5984 15.1562C14.2631 15.1562 14.4687 14.7822 14.4687 14.138V11.7875C14.4687 11.0394 14.6273 10.8906 15.1545 10.8906C15.5439 10.8906 16.21 11.0842 17.7642 12.5827C19.5416 14.36 19.8347 15.1562 20.8344 15.1562H23.455C24.2042 15.1562 24.5783 14.7822 24.3628 14.0439C24.1266 13.3078 23.2778 12.2392 22.1523 10.9738C21.5409 10.2519 20.6255 9.47531 20.3477 9.08703C19.9594 8.58828 20.0698 8.36516 20.3477 7.92219C20.3477 7.92219 23.5403 3.42688 23.8739 1.9H23.8728Z" fill="white"/>
</svg>
