<svg width="61" height="29" viewBox="0 0 61 29" fill="none" xmlns="http://www.w3.org/2000/svg">
<g clip-path="url(#clip0_70_156)">
<path d="M0 29V24.252H2.02236L14.096 0L26.1697 24.1922H28.0779V28.9933H26.4586V25.7349H1.50501V28.9933H0V29ZM13.9214 3.89681L3.75581 24.2055H24.1541L13.9214 3.89681Z" fill="white"/>
<path d="M26.2302 0.0133057H47.1458V25.7482H45.2982V1.60927H28.0846V25.7416H26.2369V0.0133057H26.2302Z" fill="white"/>
<path d="M47.1391 0H47.428C51.204 0 54.4089 1.30337 57.0494 3.91676C59.6898 6.53015 61.0067 9.65558 61.0067 13.293C61.0067 16.9305 59.71 20.0759 57.1098 22.7292C54.5096 25.3825 51.3249 26.7058 47.549 26.7058H47.1458V29.0066H45.2982V26.7058H44.8413C41.025 26.7058 37.7529 25.3692 35.0184 22.7026C32.2838 20.036 30.9132 16.8973 30.9132 13.293C30.9132 9.68883 32.2906 6.5767 35.0453 3.94336C37.8 1.31667 41.0653 0 44.8413 0H47.1526L47.1391 0ZM45.2914 1.60261H44.8278C41.5894 1.60261 38.7541 2.77299 36.3084 5.12038C33.8628 7.46778 32.6399 10.2208 32.6399 13.3861C32.6399 16.5515 33.8628 19.2979 36.3084 21.6187C38.7541 23.9461 41.5961 25.1032 44.8278 25.1032H45.2914V1.60261ZM47.1391 1.60261V25.1032H47.4885C50.727 25.1032 53.4884 23.9528 55.7795 21.6453C58.0706 19.3378 59.2195 16.5847 59.2195 13.3795C59.2195 10.1743 58.0639 7.41458 55.7526 5.08714C53.4414 2.75969 50.6665 1.59596 47.4347 1.59596H47.1458L47.1391 1.60261Z" fill="white"/>
</g>
<defs>
<clipPath id="clip0_70_156">
<rect width="61" height="29" fill="white"/>
</clipPath>
</defs>
</svg>
