<svg width="116" height="21" viewBox="0 0 116 21" fill="none" xmlns="http://www.w3.org/2000/svg">
<path d="M110.981 13.8679C110.926 13.9976 110.85 14.1026 110.752 14.1829C110.654 14.2571 110.535 14.2941 110.395 14.2941L109.47 14.2571C109.403 14.2571 109.345 14.2385 109.296 14.2015C109.247 14.1582 109.223 14.0996 109.223 14.0254C109.223 13.9699 109.235 13.9174 109.259 13.8679L110.596 10.9588C110.346 10.8291 110.117 10.6685 109.909 10.4771C109.708 10.2794 109.534 10.0632 109.387 9.82853C109.247 9.58765 109.137 9.33441 109.058 9.06883C108.978 8.79706 108.939 8.51912 108.939 8.235C108.939 7.82736 109.012 7.44133 109.159 7.07692C109.305 6.70633 109.51 6.38206 109.772 6.10412C110.035 5.82618 110.343 5.60692 110.697 5.44633C111.051 5.28574 111.436 5.20544 111.851 5.20544H115.597C115.81 5.20544 115.917 5.30736 115.917 5.51118V13.9328C115.917 14.1737 115.804 14.2941 115.578 14.2941H114.653C114.543 14.2941 114.461 14.2632 114.406 14.2015C114.357 14.1335 114.333 14.0563 114.333 13.9699V11.2368H112.208L110.981 13.8679ZM110.331 8.235C110.331 8.43265 110.37 8.62103 110.45 8.80015C110.529 8.97927 110.636 9.13986 110.77 9.28191C110.905 9.4178 111.06 9.52897 111.237 9.61544C111.421 9.69574 111.61 9.73589 111.805 9.73589H114.333V6.67853H111.805C111.604 6.67853 111.411 6.72177 111.228 6.80824C111.051 6.88853 110.895 7.0028 110.761 7.15103C110.627 7.29309 110.52 7.45986 110.441 7.65133C110.367 7.83662 110.331 8.03118 110.331 8.235Z" fill="#F9F9F9"/>
<path d="M99.1789 14.2941C98.9408 14.2941 98.8217 14.186 98.8217 13.9699V5.52971C98.8217 5.42471 98.8583 5.34441 98.9316 5.28883C99.0049 5.23324 99.0873 5.20544 99.1789 5.20544H100.131C100.217 5.20544 100.287 5.23015 100.342 5.27956C100.397 5.32897 100.434 5.39692 100.452 5.48339V11.5425L104.875 5.37221C104.948 5.26103 105.052 5.20544 105.186 5.20544H106.441C106.533 5.20544 106.609 5.23941 106.67 5.30736C106.731 5.36912 106.762 5.44941 106.762 5.54824V13.9699C106.762 14.186 106.655 14.2941 106.441 14.2941H105.498C105.272 14.2941 105.159 14.186 105.159 13.9699V7.57721L100.525 14.1274C100.434 14.2385 100.342 14.2941 100.25 14.2941H99.1789Z" fill="#F9F9F9"/>
<path d="M88.0095 5.65942C88.0095 5.51119 88.0523 5.39692 88.1377 5.31663C88.2293 5.23016 88.3545 5.18692 88.5132 5.18692H88.9894C89.1482 5.18692 89.2733 5.23016 89.3649 5.31663C89.4565 5.4031 89.5084 5.51737 89.5206 5.65942L89.5847 6.47472C89.7312 6.2709 89.8991 6.07942 90.0884 5.90031C90.2837 5.72119 90.4974 5.56678 90.7294 5.43707C90.9614 5.30119 91.2117 5.19619 91.4804 5.12207C91.749 5.04795 92.0298 5.01089 92.3229 5.01089C92.9151 5.01089 93.4646 5.13442 93.9713 5.38148C94.4842 5.62237 94.9298 5.95589 95.3084 6.38207C95.6869 6.80825 95.983 7.30854 96.1967 7.88295C96.4165 8.45737 96.5264 9.07192 96.5264 9.72663C96.5264 10.3875 96.4165 11.0052 96.1967 11.5796C95.983 12.1478 95.6869 12.645 95.3084 13.0712C94.9298 13.4974 94.4842 13.834 93.9713 14.081C93.4646 14.3219 92.9151 14.4424 92.3229 14.4424C91.694 14.4424 91.1537 14.3157 90.7019 14.0625C90.2563 13.8031 89.8899 13.4603 89.603 13.0341V17.3978C89.603 17.5399 89.5572 17.651 89.4656 17.7313C89.3802 17.8178 89.2519 17.861 89.081 17.861H88.5407C88.3819 17.861 88.2537 17.8178 88.156 17.7313C88.0584 17.651 88.0095 17.5399 88.0095 17.3978V5.65942ZM89.5847 9.76369C89.5847 10.2022 89.6518 10.613 89.7862 10.9959C89.9266 11.3788 90.1158 11.7155 90.3539 12.0057C90.5982 12.2899 90.882 12.5153 91.2056 12.6821C91.5292 12.8427 91.8772 12.923 92.2496 12.923C92.622 12.923 92.967 12.8427 93.2845 12.6821C93.608 12.5153 93.8889 12.2899 94.127 12.0057C94.3651 11.7155 94.5513 11.3788 94.6856 10.9959C94.8199 10.613 94.8871 10.2022 94.8871 9.76369C94.8871 9.33134 94.8199 8.92369 94.6856 8.54075C94.5513 8.15163 94.3651 7.81501 94.127 7.53089C93.8889 7.2406 93.608 7.01207 93.2845 6.84531C92.967 6.67237 92.622 6.5859 92.2496 6.5859C91.8772 6.5859 91.5292 6.66928 91.2056 6.83604C90.882 7.00281 90.6012 7.23134 90.3631 7.52163C90.125 7.80575 89.9357 8.13928 89.7953 8.52222C89.661 8.89898 89.5908 9.30045 89.5847 9.72663V9.76369Z" fill="#F9F9F9"/>
<path d="M76.1528 9.76368C76.1528 9.10897 76.2749 8.49132 76.5191 7.91073C76.7633 7.33015 77.096 6.82676 77.5173 6.40059C77.9447 5.96823 78.4422 5.62853 79.01 5.38147C79.5778 5.12823 80.1884 5.00162 80.8416 5.00162C81.4888 5.00162 82.0993 5.12823 82.6732 5.38147C83.2471 5.62853 83.7447 5.96823 84.1659 6.40059C84.5933 6.82676 84.9291 7.33015 85.1733 7.91073C85.4236 8.49132 85.5488 9.10897 85.5488 9.76368C85.5488 10.4246 85.4236 11.0453 85.1733 11.6259C84.9291 12.2003 84.5933 12.7037 84.1659 13.136C83.7447 13.5622 83.2471 13.8988 82.6732 14.1459C82.0993 14.3929 81.4888 14.5165 80.8416 14.5165C80.1884 14.5165 79.5778 14.3929 79.01 14.1459C78.4422 13.8988 77.9447 13.5622 77.5173 13.136C77.096 12.7037 76.7633 12.2003 76.5191 11.6259C76.2749 11.0453 76.1528 10.4246 76.1528 9.76368ZM77.6364 9.76368C77.6364 10.2084 77.7188 10.6284 77.8836 11.0237C78.0546 11.419 78.2866 11.7649 78.5796 12.0613C78.8727 12.3578 79.2115 12.5925 79.5961 12.7654C79.9869 12.9384 80.402 13.0249 80.8416 13.0249C81.2812 13.0249 81.6964 12.9384 82.0871 12.7654C82.4778 12.5925 82.8197 12.3578 83.1128 12.0613C83.4119 11.7649 83.647 11.419 83.8179 11.0237C83.9889 10.6284 84.0744 10.2084 84.0744 9.76368C84.0744 9.31897 83.9889 8.89897 83.8179 8.50368C83.647 8.10838 83.4119 7.7625 83.1128 7.46603C82.8197 7.16338 82.4778 6.92559 82.0871 6.75265C81.6964 6.57971 81.2812 6.49323 80.8416 6.49323C80.402 6.49323 79.9869 6.57971 79.5961 6.75265C79.2115 6.92559 78.8727 7.16338 78.5796 7.46603C78.2866 7.7625 78.0546 8.10838 77.8836 8.50368C77.7188 8.89897 77.6364 9.31897 77.6364 9.76368Z" fill="#F9F9F9"/>
<path d="M67.9577 5.44633C67.9577 5.28574 68.0371 5.20544 68.1958 5.20544H74.8444C74.9971 5.20544 75.0734 5.28574 75.0734 5.44633V6.54883C75.0734 6.59824 75.0551 6.65691 75.0184 6.72486C74.9818 6.7928 74.9238 6.82677 74.8444 6.82677H72.3169V13.9699C72.3169 14.186 72.2039 14.2941 71.978 14.2941H71.0073C70.7997 14.2941 70.6959 14.186 70.6959 13.9699V6.82677H68.1958C68.0371 6.82677 67.9577 6.73412 67.9577 6.54883V5.44633Z" fill="#F9F9F9"/>
<path d="M59.3222 11.9779C59.3528 11.9779 59.3894 11.9841 59.4321 11.9965C59.4749 12.0026 59.5207 12.0212 59.5695 12.052C59.6977 12.1756 59.8473 12.2929 60.0182 12.4041C60.1892 12.5091 60.3723 12.6017 60.5677 12.682C60.7631 12.7562 60.9615 12.8179 61.163 12.8673C61.3706 12.9106 61.569 12.9322 61.7582 12.9322C62.1062 12.9322 62.4359 12.8735 62.7473 12.7562C63.0648 12.6326 63.3517 12.4659 63.6081 12.2559C63.8646 12.0397 64.0843 11.7834 64.2675 11.4869C64.4568 11.1904 64.6002 10.8662 64.6979 10.5141H61.2637C61.05 10.5141 60.9432 10.406 60.9432 10.1898V9.30969C60.9432 9.10587 61.05 9.00395 61.2637 9.00395H64.6979C64.6002 8.66425 64.4568 8.34925 64.2675 8.05895C64.0843 7.76248 63.8676 7.50616 63.6173 7.28998C63.367 7.07381 63.0892 6.90704 62.7839 6.78969C62.4787 6.66616 62.1551 6.6044 61.8132 6.6044C61.5934 6.6044 61.3706 6.63219 61.1447 6.68778C60.9249 6.74337 60.7112 6.8144 60.5036 6.90087C60.296 6.98116 60.1037 7.07381 59.9267 7.17881C59.7496 7.28381 59.5939 7.38572 59.4596 7.48454C59.4352 7.4969 59.4047 7.50307 59.368 7.50307C59.307 7.50307 59.2398 7.46293 59.1666 7.38263C59.0933 7.29616 59.0231 7.20042 58.9559 7.09542C58.8888 6.98425 58.8277 6.87307 58.7728 6.7619C58.7239 6.65072 58.6903 6.56734 58.672 6.51175V6.4469C58.672 6.37895 58.6903 6.30793 58.727 6.23381C58.7636 6.15969 58.8155 6.09484 58.8827 6.03925C59.2673 5.73043 59.7038 5.48954 60.1922 5.3166C60.6868 5.14366 61.2088 5.05719 61.7582 5.05719C62.3993 5.05719 63.0007 5.18072 63.5623 5.42778C64.124 5.66866 64.6155 6.00219 65.0368 6.42837C65.458 6.85454 65.7908 7.35484 66.035 7.92925C66.2792 8.50366 66.4013 9.11822 66.4013 9.77292C66.4013 10.4276 66.2792 11.0422 66.035 11.6166C65.7908 12.191 65.458 12.6913 65.0368 13.1175C64.6155 13.5437 64.124 13.8803 63.5623 14.1273C63.0007 14.3682 62.3993 14.4887 61.7582 14.4887C61.1904 14.4887 60.6501 14.3898 60.1373 14.1922C59.6244 13.9884 59.1666 13.7197 58.7636 13.3862C58.7087 13.3367 58.6629 13.2904 58.6262 13.2472C58.5896 13.1978 58.5713 13.1391 58.5713 13.0712C58.5713 13.0588 58.5713 13.0526 58.5713 13.0526C58.5774 13.0465 58.5804 13.0403 58.5804 13.0341C58.5804 13.0279 58.5774 13.0248 58.5713 13.0248C58.5713 13.0187 58.5713 13.0094 58.5713 12.997C58.5713 12.9847 58.5774 12.9631 58.5896 12.9322C58.6018 12.9013 58.6323 12.8519 58.6812 12.784C58.7178 12.7284 58.7636 12.6573 58.8186 12.5709C58.8796 12.4782 58.9407 12.3887 59.0017 12.3022C59.0628 12.2095 59.1208 12.1323 59.1757 12.0706C59.2368 12.0088 59.2856 11.9779 59.3222 11.9779Z" fill="#F9F9F9"/>
<path d="M47.7311 9.76368C47.7311 9.10897 47.8532 8.49132 48.0974 7.91073C48.3416 7.33015 48.6743 6.82676 49.0956 6.40059C49.523 5.96823 50.0206 5.62853 50.5883 5.38147C51.1561 5.12823 51.7667 5.00162 52.4199 5.00162C53.0671 5.00162 53.6776 5.12823 54.2515 5.38147C54.8254 5.62853 55.323 5.96823 55.7442 6.40059C56.1716 6.82676 56.5074 7.33015 56.7516 7.91073C57.0019 8.49132 57.1271 9.10897 57.1271 9.76368C57.1271 10.4246 57.0019 11.0453 56.7516 11.6259C56.5074 12.2003 56.1716 12.7037 55.7442 13.136C55.323 13.5622 54.8254 13.8988 54.2515 14.1459C53.6776 14.3929 53.0671 14.5165 52.4199 14.5165C51.7667 14.5165 51.1561 14.3929 50.5883 14.1459C50.0206 13.8988 49.523 13.5622 49.0956 13.136C48.6743 12.7037 48.3416 12.2003 48.0974 11.6259C47.8532 11.0453 47.7311 10.4246 47.7311 9.76368ZM49.2147 9.76368C49.2147 10.2084 49.2971 10.6284 49.4619 11.0237C49.6329 11.419 49.8649 11.7649 50.1579 12.0613C50.451 12.3578 50.7898 12.5925 51.1744 12.7654C51.5652 12.9384 51.9803 13.0249 52.4199 13.0249C52.8595 13.0249 53.2747 12.9384 53.6654 12.7654C54.0561 12.5925 54.398 12.3578 54.6911 12.0613C54.9902 11.7649 55.2253 11.419 55.3962 11.0237C55.5672 10.6284 55.6527 10.2084 55.6527 9.76368C55.6527 9.31897 55.5672 8.89897 55.3962 8.50368C55.2253 8.10838 54.9902 7.7625 54.6911 7.46603C54.398 7.16338 54.0561 6.92559 53.6654 6.75265C53.2747 6.57971 52.8595 6.49323 52.4199 6.49323C51.9803 6.49323 51.5652 6.57971 51.1744 6.75265C50.7898 6.92559 50.451 7.16338 50.1579 7.46603C49.8649 7.7625 49.6329 8.10838 49.4619 8.50368C49.2971 8.89897 49.2147 9.31897 49.2147 9.76368Z" fill="#F9F9F9"/>
<path d="M45.2208 5.22397C45.3063 5.22397 45.3826 5.25176 45.4498 5.30735C45.523 5.36294 45.5597 5.43706 45.5597 5.5297V13.9884C45.5597 14.1922 45.4467 14.2941 45.2208 14.2941H44.2776C44.0761 14.2941 43.9754 14.1922 43.9754 13.9884V6.80823H39.3415V13.9884C39.3415 14.1922 39.2285 14.2941 39.0026 14.2941H38.0594C37.8579 14.2941 37.7571 14.1922 37.7571 13.9884V5.5297C37.7571 5.44323 37.7816 5.3722 37.8304 5.31662C37.8854 5.25485 37.9617 5.22397 38.0594 5.22397H45.2208Z" fill="#F9F9F9"/>
<g clip-path="url(#clip0_70_211)">
<path d="M26.2526 10.4998C17.4934 11.4051 16.7682 12.1387 15.8737 21C14.9792 12.1387 14.2539 11.4051 5.49472 10.4998C14.2539 9.59492 14.9792 8.86125 15.8737 0C16.7682 8.86156 17.4934 9.59523 26.2526 10.4998Z" fill="#F9F9F9"/>
<ellipse cx="9.55037" cy="15.9265" rx="1.17744" ry="1.19118" fill="#F9F9F9"/>
</g>
<defs>
<clipPath id="clip0_70_211">
<rect width="21" height="31.6595" fill="white" transform="translate(0.0439453 21) rotate(-90)"/>
</clipPath>
</defs>
</svg>
