<svg width="54" height="53" viewBox="0 0 54 53" fill="none" xmlns="http://www.w3.org/2000/svg">
<rect width="54" height="53" rx="15" fill="white"/>
<g clip-path="url(#clip0_1232_3)">
<path d="M2 33.8206H1.75V34.0706V37.7445V37.9945V38H2V38.2445H3.23362H3.48362V37.9945V35.5479H23.4374V37.9945V38.2445H23.6874H25.0147H25.2647V37.9945V34.0211V33.7711H25.0147H23.6059L13.7783 13.8892L13.5539 13.4353L13.3299 13.8894L3.5022 33.8206H2ZM21.3943 33.7821H5.48151L13.4117 17.7863L21.3943 33.7821Z" fill="#00130D" stroke="black" stroke-width="0.5"/>
<path d="M40.894 14.0112V13.7612H40.644H23.7555H23.5055H23.5V14.0112H23.2555V35.3036V35.5536H23.5055H25.02H25.27V35.3036V15.582H38.8795V35.3091V35.5591H39.1295H40.644H40.894V35.3091V14.0112Z" fill="#00130D" stroke="black" stroke-width="0.5"/>
<path d="M40.6443 38.2555H40.8943V38.0055V36.3514H40.9747C44.1364 36.3514 46.8118 35.2295 48.9909 32.9845C51.1667 30.7428 52.2557 28.0775 52.2557 25.0011C52.2557 21.9234 51.1492 19.2736 48.9387 17.0646C46.7268 14.8543 44.036 13.75 40.8756 13.75H40.6498H40.6388H38.7553C35.5945 13.75 32.8562 14.8655 30.5524 17.0834L30.5522 17.0836C28.2484 19.3072 27.0889 21.9465 27.0889 25.0011C27.0889 28.055 28.2422 30.7156 30.5284 32.9665C32.8161 35.2189 35.561 36.3514 38.7553 36.3514H38.8798V38.0055V38.2555H39.1298H40.6443ZM31.9344 31.711L31.9341 31.7108C29.9755 29.8342 29.0042 27.6253 29.0042 25.0782C29.0042 22.5311 29.9755 20.3162 31.9351 18.4171C33.8958 16.5171 36.1584 15.5763 38.7443 15.5763H38.8743V34.5251H38.7443C36.1629 34.5251 33.8947 33.5946 31.9344 31.711ZM40.8888 34.5251V15.5708C43.466 15.5727 45.6742 16.5078 47.5208 18.3853C49.3704 20.2658 50.2908 22.4872 50.2908 25.0727C50.2908 27.6587 49.3755 29.8744 47.5428 31.738C45.7115 33.6003 43.512 34.5251 40.9252 34.5251H40.8888Z" fill="#00130D" stroke="black" stroke-width="0.5"/>
</g>
<defs>
<clipPath id="clip0_1232_3">
<rect width="50" height="24" fill="white" transform="translate(2 14)"/>
</clipPath>
</defs>
</svg>
