<svg width="166" height="212" viewBox="0 0 166 212" fill="none" xmlns="http://www.w3.org/2000/svg">
<path d="M2.10345 2.37572C2.89655 1.82081 3 0 3 0C3 0 3.11422 1.66474 3.7931 2.28902C4.47198 2.9133 6 2.98266 6 2.98266C6 2.98266 4.39655 3.16015 3.77586 3.71098C3.15517 4.26182 3 6 3 6C3 6 2.82758 4.12717 2.15517 3.62428C1.48276 3.12139 0 3 0 3C0 3 1.31035 2.93064 2.10345 2.37572Z" fill="white"/>
<path d="M158.207 204.751C159.793 203.642 160 200 160 200C160 200 160.228 203.329 161.586 204.578C162.944 205.827 166 205.965 166 205.965C166 205.965 162.793 206.32 161.552 207.422C160.31 208.524 160 212 160 212C160 212 159.655 208.254 158.31 207.249C156.966 206.243 154 206 154 206C154 206 156.621 205.861 158.207 204.751Z" fill="white"/>
</svg>
