<svg width="589" height="619" viewBox="0 0 589 619" fill="none" xmlns="http://www.w3.org/2000/svg">
<g filter="url(#filter0_f_200_112)">
<circle cx="323.335" cy="353.334" r="49.7124" transform="rotate(-8.2544 323.335 353.334)" fill="#00FFB2"/>
</g>
<path d="M21.8563 493.355C23.3103 492.338 23.5 489 23.5 489C23.5 489 23.7094 492.052 24.954 493.197C26.1986 494.341 29 494.468 29 494.468C29 494.468 26.0603 494.794 24.9224 495.803C23.7845 496.813 23.5 500 23.5 500C23.5 500 23.1839 496.566 21.9511 495.645C20.7184 494.723 18 494.5 18 494.5C18 494.5 20.4023 494.373 21.8563 493.355Z" fill="white"/>
<path d="M292.011 340.919C294.655 339.069 295 333 295 333C295 333 295.381 338.549 297.644 340.63C299.907 342.711 305 342.942 305 342.942C305 342.942 299.655 343.534 297.586 345.37C295.517 347.206 295 353 295 353C295 353 294.425 346.757 292.184 345.081C289.943 343.405 285 343 285 343C285 343 289.368 342.769 292.011 340.919Z" fill="white"/>
<path d="M5.25862 5.93931C7.24138 4.55203 7.50001 0 7.50001 0C7.50001 0 7.78556 4.16186 9.48275 5.72255C11.18 7.28324 15 7.45665 15 7.45665C15 7.45665 10.9914 7.90037 9.43965 9.27746C7.88793 10.6545 7.50001 15 7.50001 15C7.50001 15 7.06896 10.3179 5.38793 9.0607C3.7069 7.80347 0 7.5 0 7.5C0 7.5 3.27587 7.32659 5.25862 5.93931Z" fill="white"/>
<defs>
<filter id="filter0_f_200_112" x="58.6157" y="88.6151" width="529.438" height="529.438" filterUnits="userSpaceOnUse" color-interpolation-filters="sRGB">
<feFlood flood-opacity="0" result="BackgroundImageFix"/>
<feBlend mode="normal" in="SourceGraphic" in2="BackgroundImageFix" result="shape"/>
<feGaussianBlur stdDeviation="107.5" result="effect1_foregroundBlur_200_112"/>
</filter>
</defs>
</svg>
